<?xml version="1.0" encoding="utf-8"?>
<?xml-stylesheet type="text/xsl" href="rss1.xsl"?>
<rss version="2.0" xmlns:atom="http://www.w3.org/2005/Atom" xmlns:content="http://purl.org/rss/1.0/modules/content/" xmlns:dc="http://purl.org/dc/elements/1.1/" xmlns:media="http://search.yahoo.com/mrss/">
<channel>
 <title>Getty</title>
 <link>http://www.gettyimg.com/</link>
 <atom:link href="http://www.gettyimg.com/" rel="self" type="application/rss+xml" />

 
                <item>
                <title><![CDATA[【Apple Music】WEB-RiP - Calvin Harris - I Need Your Love (feat. Ellie Goulding) (1080p)]]></title>
                <link><![CDATA[https://sharemania.us/threads/calvin-harris-i-need-your-love-feat-ellie-goulding-1080p.235618/]]></link>
                <description><![CDATA[<article>
<blockquote class="messageText SelectQuoteContainer ugc baseHtml">
<img src="https://i.postimg.cc/Y2FDDtJT/Calvin-Harris-I-Need-Your-Love-feat-Ellie-Goulding-mp4.jpg" class="bbCodeImage LbImage" alt="[​IMG]" data-url="https://i.postimg.cc/Y2FDDtJT/Calvin-Harris-I-Need-Your-Love-feat-Ellie-Goulding-mp4.jpg" style=""><br>
<br>
<div class="bbCodeBlock bbCodeCode">
<div class="type">Code:</div>
<pre>General
Complete name                  : G:\Новая папка\Calvin Harris - I Need Your Love (feat. Ellie Goulding).mp4
Format                         : MPEG-4
Format profile                 : Base Media
Codec ID                       : isom (isom/iso2/avc1/mp41)
File size                      : 267 MiB
Duration                       : 3 min 46 s
Overall bit rate               : 9 869 kb/s
Frame rate                     : 25.000 FPS
Movie name                     : I Need Your Love (feat. Ellie Goulding)
Performer                      : Calvin Harris
Genre                          : Dance
Recorded date                  : 2013-04-14 07:00:00 UTC
Writing application            : Lavf54.59.106
Copyright                      : ℗ (C) 2013 Sony Music Entertainment UK Limited

Video
ID                             : 1
Format                         : AVC
Format/Info                    : Advanced Video Codec
Format profile                 : High@L4
Format settings                : CABAC / 4 Ref Frames
Format settings, CABAC         : Yes
Format settings, Reference fra : 4 frames
Codec ID                       : avc1
Codec ID/Info                  : Advanced Video Coding
Duration                       : 3 min 46 s
Bit rate                       : 9 610 kb/s
Width                          : 1 920 pixels
Height                         : 1 080 pixels
Display aspect ratio           : 16:9
Frame rate mode                : Constant
Frame rate                     : 25.000 FPS
Color space                    : YUV
Chroma subsampling             : 4:2:0
Bit depth                      : 8 bits
Scan type                      : Progressive
Bits/(Pixel*Frame)             : 0.185
Stream size                    : 260 MiB (97%)
Color range                    : Limited
Color primaries                : BT.709
Transfer characteristics       : BT.709
Matrix coefficients            : BT.709
Codec configuration box        : avcC

Audio
ID                             : 2
Format                         : AAC LC
Format/Info                    : Advanced Audio Codec Low Complexity
Codec ID                       : mp4a-40-2
Duration                       : 3 min 46 s
Bit rate mode                  : Constant
Bit rate                       : 256 kb/s
Channel(s)                     : 2 channels
Channel layout                 : L R
Sampling rate                  : 48.0 kHz
Frame rate                     : 46.875 FPS (1024 SPF)
Compression mode               : Lossy
Stream size                    : 6.93 MiB (3%)
Default                        : Yes
Alternate group                : 1

</pre>
</div>
<div class="bbCodeBlock bbCodeVfcHH HiddenContent">
<div class="attribution type">Hidden Content:</div>
<blockquote>You must either reply or click 'Like' to see the hidden information contained here.</blockquote>
</div>
<div class="messageTextEndMarker">&nbsp;</div>
</blockquote>
</article>]]></description>
                <author><![CDATA[vitalya3]]></author>
                </item>

                
                <item>
                <title><![CDATA[【Apple Music】WEB-RiP - Calvin Harris - Let's Go (feat. Ne-Yo) (1080p)]]></title>
                <link><![CDATA[https://sharemania.us/threads/calvin-harris-lets-go-feat-ne-yo-1080p.235620/]]></link>
                <description><![CDATA[<article>
<blockquote class="messageText SelectQuoteContainer ugc baseHtml">
<img src="https://i.postimg.cc/FRFFFkpY/Calvin-Harris-Let-s-Go-feat-Ne-Yo-mp4.jpg" class="bbCodeImage LbImage" alt="[​IMG]" data-url="https://i.postimg.cc/FRFFFkpY/Calvin-Harris-Let-s-Go-feat-Ne-Yo-mp4.jpg" style=""><br>
<br>
<div class="bbCodeBlock bbCodeCode">
<div class="type">Code:</div>
<pre>General
Complete name                  : G:\Новая папка\Calvin Harris - Let's Go (feat. Ne-Yo).mp4
Format                         : MPEG-4
Format profile                 : Base Media
Codec ID                       : isom (isom/iso2/avc1/mp41)
File size                      : 302 MiB
Duration                       : 4 min 6 s
Overall bit rate               : 10.3 Mb/s
Frame rate                     : 23.976 FPS
Movie name                     : Let's Go (feat. Ne-Yo)
Performer                      : Calvin Harris
Genre                          : Dance
ContentType                    : Music Video
Recorded date                  : 2012-05-14 07:00:00 UTC
Writing application            : Lavf56.30.100
Copyright                      : ℗ (C) 2012 Sony Music Entertainment UK Limited

Video
ID                             : 1
Format                         : AVC
Format/Info                    : Advanced Video Codec
Format profile                 : High@L4
Format settings                : CABAC / 5 Ref Frames
Format settings, CABAC         : Yes
Format settings, Reference fra : 5 frames
Codec ID                       : avc1
Codec ID/Info                  : Advanced Video Coding
Duration                       : 4 min 6 s
Bit rate                       : 10.0 Mb/s
Width                          : 1 920 pixels
Height                         : 808 pixels
Display aspect ratio           : 2.39:1
Frame rate mode                : Constant
Frame rate                     : 23.976 (23976/1000) FPS
Color space                    : YUV
Chroma subsampling             : 4:2:0
Bit depth                      : 8 bits
Scan type                      : Progressive
Bits/(Pixel*Frame)             : 0.270
Stream size                    : 294 MiB (98%)
Color range                    : Limited
Color primaries                : BT.709
Transfer characteristics       : BT.709
Matrix coefficients            : BT.709
Codec configuration box        : avcC

Audio
ID                             : 2
Format                         : AAC LC
Format/Info                    : Advanced Audio Codec Low Complexity
Codec ID                       : mp4a-40-2
Duration                       : 4 min 6 s
Bit rate mode                  : Constant
Bit rate                       : 252 kb/s
Channel(s)                     : 2 channels
Channel layout                 : L R
Sampling rate                  : 48.0 kHz
Frame rate                     : 46.875 FPS (1024 SPF)
Compression mode               : Lossy
Stream size                    : 7.39 MiB (2%)
Default                        : Yes
Alternate group                : 1

</pre>
</div>
<div class="bbCodeBlock bbCodeVfcHH HiddenContent">
<div class="attribution type">Hidden Content:</div>
<blockquote>You must either reply or click 'Like' to see the hidden information contained here.</blockquote>
</div>
<div class="messageTextEndMarker">&nbsp;</div>
</blockquote>
</article>]]></description>
                <author><![CDATA[vitalya3]]></author>
                </item>

                
                <item>
                <title><![CDATA[【Singles (lossy)】MP3 - BABYMONSTER - BATTER UP [Amazon Digital]]]></title>
                <link><![CDATA[https://sharemania.us/threads/babymonster-batter-up-amazon-digital.235619/]]></link>
                <description><![CDATA[<article>
<blockquote class="messageText SelectQuoteContainer ugc baseHtml">
<img src="https://encrypted-tbn0.gstatic.com/images?q=tbn:ANd9GcS0XgjxUZ1J1GZJrYWF0__VZVITkRzmQjuIkg&amp;usqp=CAU" class="bbCodeImage LbImage" alt="[​IMG]" data-url="https://encrypted-tbn0.gstatic.com/images?q=tbn:ANd9GcS0XgjxUZ1J1GZJrYWF0__VZVITkRzmQjuIkg&amp;usqp=CAU" style=""><br>
<br>
<br>
<br>
Tracklist:<br>
<br>
1. Batter Up<br>
<br>
<br>
Artist: Babymonster<br>
<br>
Album: BABYMONSTER Debut Digital Single [BATTER UP]<br>
<br>
Format: MP3 320kbps<br>
<br>
<br>
<div class="bbCodeBlock bbCodeVfcHH HiddenContent">
<div class="attribution type">Hidden Content:</div>
<blockquote>You must either reply or click 'Like' to see the hidden information contained here.</blockquote>
</div>
<div class="messageTextEndMarker">&nbsp;</div>
</blockquote>
</article>]]></description>
                <author><![CDATA[hilmanjaeni]]></author>
                </item>

                
                <item>
                <title><![CDATA[【Apple Music】WEB-RiP - Armin van Buuren &amp; Bonnie McKee - Lonely For You (1080p)]]></title>
                <link><![CDATA[https://sharemania.us/threads/armin-van-buuren-bonnie-mckee-lonely-for-you-1080p.235621/]]></link>
                <description><![CDATA[<article>
<blockquote class="messageText SelectQuoteContainer ugc baseHtml">
<img src="https://i.postimg.cc/PJDDsrjV/Armin-van-Buuren-Bonnie-Mc-Kee-Lonely-For-You-mp4.jpg" class="bbCodeImage LbImage" alt="[​IMG]" data-url="https://i.postimg.cc/PJDDsrjV/Armin-van-Buuren-Bonnie-Mc-Kee-Lonely-For-You-mp4.jpg" style=""><br>
<br>
<div class="bbCodeBlock bbCodeCode">
<div class="type">Code:</div>
<pre>General
Complete name                  : G:\Новая папка\Armin van Buuren &amp; Bonnie McKee - Lonely For You.mp4
Format                         : MPEG-4
Format profile                 : Base Media
Codec ID                       : isom (isom/iso2/avc1/mp41)
File size                      : 159 MiB
Duration                       : 3 min 20 s
Overall bit rate               : 6 671 kb/s
Frame rate                     : 25.000 FPS
Movie name                     : Lonely For You
Performer                      : Armin van Buuren &amp; Bonnie McKee
Genre                          : Dance
ContentType                    : Music Video
Recorded date                  : 2019-02-15 08:00:00 UTC
Writing application            : Lavf56.30.100
Copyright                      : ℗ 2019 Armada Music B.V.

Video
ID                             : 1
Format                         : AVC
Format/Info                    : Advanced Video Codec
Format profile                 : High@L4.1
Format settings                : CABAC / 4 Ref Frames
Format settings, CABAC         : Yes
Format settings, Reference fra : 4 frames
Codec ID                       : avc1
Codec ID/Info                  : Advanced Video Coding
Duration                       : 3 min 20 s
Bit rate                       : 6 417 kb/s
Width                          : 1 920 pixels
Height                         : 960 pixels
Display aspect ratio           : 2.000
Frame rate mode                : Constant
Frame rate                     : 25.000 FPS
Color space                    : YUV
Chroma subsampling             : 4:2:0
Bit depth                      : 8 bits
Scan type                      : Progressive
Bits/(Pixel*Frame)             : 0.139
Stream size                    : 153 MiB (96%)
Color range                    : Limited
Color primaries                : BT.709
Transfer characteristics       : BT.709
Matrix coefficients            : BT.709
Codec configuration box        : avcC

Audio
ID                             : 2
Format                         : AAC LC
Format/Info                    : Advanced Audio Codec Low Complexity
Codec ID                       : mp4a-40-2
Duration                       : 3 min 20 s
Bit rate mode                  : Constant
Bit rate                       : 251 kb/s
Channel(s)                     : 2 channels
Channel layout                 : L R
Sampling rate                  : 48.0 kHz
Frame rate                     : 46.875 FPS (1024 SPF)
Compression mode               : Lossy
Stream size                    : 6.00 MiB (4%)
Default                        : Yes
Alternate group                : 1

</pre>
</div>
<div class="bbCodeBlock bbCodeVfcHH HiddenContent">
<div class="attribution type">Hidden Content:</div>
<blockquote>You must either reply or click 'Like' to see the hidden information contained here.</blockquote>
</div>
<div class="messageTextEndMarker">&nbsp;</div>
</blockquote>
</article>]]></description>
                <author><![CDATA[vitalya3]]></author>
                </item>

                </channel></rss>